<?xml version="1.0" encoding="UTF-8" standalone="no"?>
<svg id="body_1" width="36" height="36" version="1.1" sodipodi:docname="favicon.svg"
  inkscape:version="1.2.2 (732a01da63, 2022-12-09)" xmlns:inkscape="http://www.inkscape.org/namespaces/inkscape"
  xmlns:sodipodi="http://sodipodi.sourceforge.net/DTD/sodipodi-0.dtd" xmlns="http://www.w3.org/2000/svg"
  xmlns:svg="http://www.w3.org/2000/svg">
  <defs id="defs26" />
  <sodipodi:namedview id="namedview24" pagecolor="#ffffff" bordercolor="#000000" borderopacity="0.25"
    inkscape:showpageshadow="2" inkscape:pageopacity="0.0" inkscape:pagecheckerboard="0" inkscape:deskcolor="#d1d1d1"
    showgrid="false" inkscape:zoom="28.527778" inkscape:cx="11.374878" inkscape:cy="18.017527"
    inkscape:window-width="3440" inkscape:window-height="1412" inkscape:window-x="2552" inkscape:window-y="-8"
    inkscape:window-maximized="1" inkscape:current-layer="g21" />
  <g transform="matrix(0.0703125 0 0 0.0703125 0 0)" id="g21">
    <path
      d="M0 50C 0 22.385763 22.385763 0 50 0L50 0L462 0C 489.61423 0 512 22.385763 512 50L512 50L512 462C 512 489.61423 489.61423 512 462 512L462 512L50 512C 22.385763 512 0 489.61423 0 462L0 462L0 50z"
      stroke="none" fill="#3178C6" fill-rule="nonzero" id="path15" />
    <path
      d="M317 407L317 457C 325.1 461.2 335 464.3 346 466.4C 357 468.5 369 469.5 381 469.5C 393 469.5 404 468.4 415 466.1C 426 463.80002 435 460 443 455.1C 451.1 449.80002 458 443.1 462 434.1C 466 425.1 469.1 415.1 469.1 402.1C 469.1 393 467.7 385.1 465 378.1C 462.3 371.1 458.4 365.1 453 360.1C 447.9 354.80002 442 350.1 435 346.1C 428 342.1 420 337.9 411 334.1C 404.4 331.4 399 328.80002 393 326.2C 387.8 323.6 383.3 321 380 318.40002C 376.3 315.7 373.5 312.90002 371.5 310.00003C 369.5 307.00003 368.5 303.70004 368.5 300.00003C 368.5 296.60004 369.39 293.50003 371.2 290.70004C 373.01 287.90005 375.5 285.60004 378.7 283.60004C 381.90002 281.60004 385.90002 280.10004 390.7 279.00003C 395.40002 277.90002 400.6 277.40002 406.7 277.40002C 410.90002 277.40002 415.30002 277.71002 419.7 278.34003C 424.30002 278.97003 429 279.94003 433.7 281.24002C 438.40002 282.54 443 284.14 447.7 286.14C 452.1 288.14 456.2 290.44 459.7 293.04L459.7 293.04L459.7 246.04001C 452.1 243.14001 443.7 240.94 434.7 239.54001C 425.7 238.14001 415.7 237.44 403.7 237.44C 391.7 237.44 380.7 238.74 369.7 241.24C 358.7 243.74 349.7 247.74 341.7 253.24C 333.6 258.64 327.7 265.24 322.7 274.24C 318 282.63998 315.7 292.24 315.7 304.24C 315.7 319.24 320 332.24 328.7 342.24C 337.30002 353.24 350.7 361.24 367.7 369.24C 374.6 372.03998 380.7 374.84 386.7 377.53998C 392.7 380.23996 397.7 383.03998 401.7 385.93997C 406 388.83997 409.40002 392.03998 411.7 395.43997C 414.2 398.83997 415.5 402.83997 415.5 407.43997C 415.5 410.63998 414.72 413.63998 413.2 416.43997C 411.68002 419.23996 409.30002 421.63998 406.1 423.63998C 402.9 425.63998 399 427.24 394.1 428.43997C 389.4 429.53998 384.1 430.13998 377.1 430.13998C 366.1 430.13998 355.1 428.24 345.1 424.43997C 334.1 420.63998 324.1 414.93997 315.1 407.43997L315.1 407.43997L317 407zM233 284L297 284L297 243L118 243L118 284L182 284L182 467L233 467z"
      stroke="none" fill="#FFFFFF" fill-rule="nonzero" id="path17" />
    <path
      d="M25 60C 25 40.670033 40.670033 25 60 25L60 25L452 25C 471.32996 25 487 40.670033 487 60L487 60L487 452C 487 471.32996 471.32996 487 452 487L452 487L60 487C 40.670033 487 25 471.32996 25 452L25 452L25 60z"
      stroke="#FFFFFF" stroke-width="15" fill="none" id="path19" style="stroke-dasharray:45,45;stroke-dashoffset:0" />
  </g>
</svg>
